<svg xmlns="http://www.w3.org/2000/svg" width="10mm" height="82.677" viewBox="0 0 10 21.875"><path d="m44.397 83.987.625-.625.625.625v5l-.625.625-.625-.625zM48.772 83.987l.625-.625.625.625v5l-.625.625-.625-.625zM53.147 83.987l.625-.625.625.625v5l-.625.625-.625-.625zM49.084 82.424v.625l-.625.625h-2.5l-.625-.625.625-.625zM52.834 82.424l.625.625-.625.625h-2.5l-.625-.625v-.625zM48.46 89.3l.624.624-.625.625h-2.5l-.625-.625.625-.625zM52.834 89.3l.625.624-.625.625h-2.5l-.625-.625.625-.625zM45.96 85.237v-1.25h.624l1.875 3.75v1.25h-.625zM52.834 85.237v-1.25h-.625l-1.875 3.75v1.25h.625z" style="fill:#00f;stroke:none;stroke-width:.264583" transform="translate(-44.397 -82.424)"/><g style="stroke-width:.846667"><path d="M72.71 95.165v1.058h-.529l-1.587-3.175V91.99h.529zM66.89 95.165v1.058h.529l1.587-3.175V91.99h-.529z" style="fill:#00f;stroke:none;stroke-width:.224014" transform="translate(-77.44 -107.087) scale(1.1811)"/></g><path d="m54.397 102.737-.625.625-.625-.625v-5l.625-.625.625.625zM50.022 102.737l-.625.625-.625-.625v-5l.625-.625.625.625zM45.647 102.737l-.625.625-.625-.625v-5l.625-.625.625.625zM49.71 104.3v-.626l.624-.625h2.5l.625.625-.625.625zM50.022 95.862l-.625.625-.625-.625v-5l.625-.625.625.625zM45.96 104.3l-.626-.626.625-.625h2.5l.625.625v.625zM50.334 97.424l-.625-.625.625-.625h2.5l.625.625-.625.625zM45.96 97.424l-.626-.625.625-.625h2.5l.625.625-.625.625zM52.834 101.487v1.25h-.625l-1.875-3.75v-1.25h.625zM45.96 101.487v1.25h.624l1.875-3.75v-1.25h-.625z" style="fill:#00f;stroke:none;stroke-width:.264583" transform="translate(-44.397 -82.424)"/><g style="stroke-width:.846667"><path d="M72.71 95.165v1.058h-.529l-1.587-3.175V91.99h.529zM66.89 95.165v1.058h.529l1.587-3.175V91.99h-.529z" style="fill:#00f;stroke:none;stroke-width:.224014" transform="rotate(180 43.72 64.48) scale(1.1811)"/></g></svg>